<svg aria-hidden="true" style="position: absolute; width: 0; height: 0; overflow: hidden;" version="1.1" xmlns="http://www.w3.org/2000/svg" xmlns:xlink="http://www.w3.org/1999/xlink">
<defs>
<symbol id="icon-search" viewBox="0 0 32 32">
<path d="M12.308 0.231c-6.673 0-12.077 5.404-12.077 12.077s5.404 12.077 12.077 12.077c2.817 0 5.409-0.995 7.462-2.615l1.077 1.077c-0.452 0.851-0.293 1.938 0.423 2.654l5.654 5.692c0.88 0.88 2.313 0.88 3.192 0l1.077-1.077c0.88-0.88 0.88-2.313 0-3.192l-5.692-5.654c-0.721-0.721-1.803-0.846-2.654-0.385l-1.077-1.077c1.63-2.058 2.615-4.668 2.615-7.5 0-6.673-5.404-12.077-12.077-12.077zM12.308 2.462c5.438 0 9.846 4.409 9.846 9.846s-4.409 9.846-9.846 9.846c-5.438 0-9.846-4.409-9.846-9.846s4.409-9.846 9.846-9.846zM6.077 9.192c-0.635 1.029-1 2.24-1 3.538 0 3.726 3.005 6.731 6.731 6.731 1.438 0 2.788-0.466 3.885-1.231-0.293 0.034-0.62 0.038-0.923 0.038-4.817 0-8.692-3.875-8.692-8.692 0-0.13-0.005-0.255 0-0.385z"></path>
</symbol>
</defs>
</svg>
